<svg version="1.1" xmlns="http://www.w3.org/2000/svg" xmlns:xlink="http://www.w3.org/1999/xlink" width="500px" height="500px" viewBox="0,0,255.99167,255.99167"><g transform="translate(12.79958,12.79958) scale(0.9,0.9)"><g fill="none" fill-rule="nonzero" stroke="#000000" stroke-width="none" stroke-linecap="butt" stroke-linejoin="miter" stroke-miterlimit="10" stroke-dasharray="" stroke-dashoffset="0" font-family="none" font-weight="none" font-size="none" text-anchor="none" style="mix-blend-mode: normal"><g transform="translate(-0.00416,-0.00416) scale(1.00003,1.00003)"><g transform="translate(25.59917,25.59917) scale(0.8,0.8)"><g><g transform="translate(-0.00417,-2.56417) scale(0.512,0.512)"><path d="M470,40l-220,60l-220,-60v380l220,50l220,-50z" fill="#2b5ea7" stroke-width="2"></path><path d="M250,115l205,-55v340l-205,45z" fill="#ffffff" stroke-width="2"></path><path d="M270,130l160,-40v290l-160,35z" fill-opacity="0.9" fill="#e0dacf" stroke-width="1.5"></path><path d="M270,185l160,-33" fill="none" stroke-width="1.5"></path><path d="M270,265l160,-32" fill="none" stroke-width="1.5"></path><path d="M270,345l160,-34" fill="none" stroke-width="1.5"></path><path d="M320,335v70" fill="none" stroke-width="1.5"></path><path d="M370,245v79" fill="none" stroke-width="1.5"></path><path d="M320,175v80" fill="none" stroke-width="1.5"></path><path d="M375,104v60" fill="none" stroke-width="1.5"></path><path d="M250,115l-205,-55v340l205,45z" fill="#ffffff" stroke-width="2"></path><path d="M230,130l-160,-40v290l160,35z" fill-opacity="0.9" fill="#e0dacf" stroke-width="1.5"></path><path d="M230,185l-160,-33" fill="none" stroke-width="1.5"></path><path d="M230,265l-160,-32" fill="none" stroke-width="1.5"></path><path d="M230,345l-160,-34" fill="none" stroke-width="1.5"></path><path d="M180,335v70" fill="none" stroke-width="1.5"></path><path d="M130,245v79" fill="none" stroke-width="1.5"></path><path d="M180,175v80" fill="none" stroke-width="1.5"></path><path d="M125,104v60" fill="none" stroke-width="1.5"></path><path d="M250,99v371" fill="#000000" stroke-width="2.5"></path></g></g></g></g></g></g></svg>